<?xml version="1.0" standalone="no"?>
<!DOCTYPE svg PUBLIC "-//W3C//DTD SVG 1.0//EN" "http://www.w3.org/TR/2001/REC-SVG-20010904/DTD/svg10.dtd">
<svg xmlns="http://www.w3.org/2000/svg" xmlns:xlink="http://www.w3.org/1999/xlink" id="body_1" width="102" height="102">

<g transform="matrix(0.1992188 0 0 0.1992188 0 0)">
		<g transform="matrix(1.019435 0 0 1.019435 0 0)">
        </g>
        <path transform="matrix(1.019435 0 0 1.019435 0 0)"  d="M341.835 334.166C 366.029 300.534 380.903 261.888 385.546 221.096L385.546 221.096L251.12 182.871L116.693 221.096C 121.335 261.887 136.209 300.534 160.404 334.166C 183.961 366.91 215.224 393.253 251.12 410.678C 287.015 393.253 318.279 366.91 341.835 334.166z" stroke="none" fill="rgb(33, 0, 85)" fill-rule="nonzero" />
        <g transform="matrix(1.019435 0 0 1.019435 0 0)">
        </g>
        <path transform="matrix(1.019435 0 0 1.019435 0 0)"  d="M251.12 151.682L387.12 190.355L387.12 127.976L251.12 89.30301L115.12 127.976L115.12 190.355L251.12 151.682z" stroke="none" fill="rgb(33, 0, 85)" fill-rule="nonzero" />
        <g transform="matrix(1.019435 0 0 1.019435 0 0)">
        </g>
        <path transform="matrix(1.019435 0 0 1.019435 0 0)"  d="M266.12 0L266.12 62.379L417.12 105.318L417.12 193.338C 417.12 250.614 399.509 305.37 366.189 351.687C 340.141 387.892 305.688 417.134 266.12 436.73L266.12 436.73L266.12 502.24C 325.869 478.957 377.148 439.196 414.894 386.726C 455.602 330.14 477.12 263.267 477.12 193.338L477.12 193.338L477.12 60.00002L266.12 0z" stroke="none" fill="rgb(33, 0, 85)" fill-rule="nonzero" />
        <g transform="matrix(1.019435 0 0 1.019435 0 0)">
        </g>
        <path transform="matrix(1.019435 0 0 1.019435 0 0)"  d="M236.12 436.729C 196.552 417.133 162.098 387.891 136.052 351.686C 102.732 305.37 85.12 250.614 85.12 193.337L85.12 193.337L85.12 105.317L236.12 62.37801L236.12 1.144409E-05L25.12 60.00001L25.12 193.337C 25.12 263.266 46.63799 330.139 87.34599 386.725C 125.093 439.195 176.372 478.9561 236.12 502.239L236.12 502.239L236.12 436.729z" stroke="none" fill="rgb(33, 0, 85)" fill-rule="nonzero" />
</g>
</svg>